<?xml version="1.0" encoding="UTF-8"?><svg id="a" xmlns="http://www.w3.org/2000/svg" viewBox="0 0 1024 1024"><rect width="1024" height="1024" fill="#fff"/><path d="M313.91,911.68V391.36l54.03-31.09h31.09c14.8-25.65,35.27-45.26,61.43-58.84,26.15-13.57,57.48-20.35,94-20.35,44.89,0,83.01,9.51,114.35,28.5,31.33,19,55.26,45.77,71.79,80.31,16.53,34.54,24.8,75.25,24.8,122.12s-8.03,87.71-24.05,122.5c-16.04,34.79-39.23,61.56-69.57,80.31-30.35,18.76-66.74,28.13-109.17,28.13-33.56,0-62.8-6.55-87.71-19.61-24.92-13.07-44.04-31.7-57.36-55.88h-2.96v244.25h-100.66ZM536.7,656.33c41.45,0,73.15-12.83,95.11-38.49,21.95-25.65,32.94-60.94,32.94-105.84s-10.99-80.18-32.94-105.84c-21.96-25.65-53.66-38.49-95.11-38.49-37.01,0-66.61,10.62-88.82,31.83-22.2,21.22-33.31,49.84-33.31,85.86v53.29c0,36.02,11.1,64.65,33.31,85.86,22.2,21.22,51.81,31.83,88.82,31.83Z" fill="#252628"/><rect x="261.65" y="285.47" width="106.58" height="106.58" fill="#e5322e"/><rect x="658.82" y="141.71" width="106.58" height="106.58" fill="#f7b523"/><rect x="513.52" y="141.71" width="106.58" height="106.58" fill="#24b238"/><rect x="368.23" y="141.71" width="106.58" height="106.58" fill="#0076ce"/></svg>