<?xml version="1.0" encoding="UTF-8"?><svg id="b" xmlns="http://www.w3.org/2000/svg" viewBox="0 0 595.01 135"><g id="c"><polygon points="78.74 29.37 20.68 87.43 0 66.74 0 90.07 20.68 110.76 84.63 46.82 84.63 29.37 78.74 29.37" fill="#e5322e"/><path d="M50.45,135h24.01c3.98-3.98,6.19-6.19,10.17-10.17v-24.01l-34.18,34.17Z" fill="#24b238"/><path d="M20.68,126.94L0,106.26v18.58c3.97,3.97,6.19,6.19,10.17,10.17h24.11l50.36-50.36v-21.65l-63.95,63.95Z" fill="#0073cf"/><path d="M30.64,19.82c0-6.86,5.18-12.4,11.61-12.4s11.61,5.54,11.61,12.4v9.56h7.24v-10.59C61.1,8.44,52.72,0,42.31,0s-18.78,8.39-18.78,18.78v10.59h7.11v-9.56Z" fill="#24b238"/><polygon points="62.62 29.31 0 29.37 0 50.56 20.68 71.25 62.62 29.31" fill="#f7b523"/><path d="M120.64,135V47.12l9.12-5.25h5.25c2.5-4.33,5.96-7.64,10.38-9.94,4.42-2.29,9.71-3.44,15.88-3.44,7.58,0,14.02,1.61,19.31,4.81,5.29,3.21,9.33,7.73,12.12,13.56,2.79,5.83,4.19,12.71,4.19,20.62s-1.36,14.81-4.06,20.69c-2.71,5.88-6.62,10.4-11.75,13.56-5.12,3.17-11.27,4.75-18.44,4.75-5.67,0-10.61-1.11-14.81-3.31-4.21-2.21-7.44-5.35-9.69-9.44h-.5v41.25h-17ZM158.27,91.88c7,0,12.35-2.17,16.06-6.5,3.71-4.33,5.56-10.29,5.56-17.88s-1.86-13.54-5.56-17.88c-3.71-4.33-9.06-6.5-16.06-6.5-6.25,0-11.25,1.79-15,5.38-3.75,3.58-5.62,8.42-5.62,14.5v9c0,6.08,1.88,10.92,5.62,14.5,3.75,3.58,8.75,5.38,15,5.38Z" fill="#252628"/><path d="M216.77,105v-57.88l9.12-2.75h5.25c2-4.92,5.19-8.67,9.56-11.25,4.38-2.58,9.39-3.88,15.06-3.88h6.25v14.62h-7c-7.08,0-12.44,2.04-16.06,6.12-3.62,4.08-5.44,9.54-5.44,16.38v38.62h-16.75Z" fill="#252628"/><path d="M305.39,106.5c-7.92,0-14.81-1.6-20.69-4.81-5.88-3.21-10.4-7.77-13.56-13.69-3.17-5.92-4.75-12.83-4.75-20.75s1.56-14.77,4.69-20.56c3.12-5.79,7.56-10.27,13.31-13.44,5.75-3.17,12.54-4.75,20.38-4.75s13.96,1.48,19.38,4.44c5.42,2.96,9.6,7.17,12.56,12.62,2.96,5.46,4.44,11.94,4.44,19.44v6.25h-58.5c.67,6.83,2.96,12.11,6.88,15.81,3.92,3.71,9.17,5.56,15.75,5.56,4.83,0,8.79-.92,11.88-2.75,3.08-1.83,5.21-4.58,6.38-8.25h17.25c-1.83,7.83-5.86,13.94-12.06,18.31-6.21,4.38-13.98,6.56-23.31,6.56ZM283.14,59.38h41.75c-.67-5.5-2.75-9.73-6.25-12.69-3.5-2.96-8.12-4.44-13.88-4.44s-10.5,1.48-14.25,4.44c-3.75,2.96-6.21,7.19-7.38,12.69Z" fill="#252628"/><path d="M356.14,105V0h17v105h-17Z" fill="#252628"/><path d="M392.89,105V30h17v75h-17Z" fill="#252628"/><path d="M433.27,105v-57.88l9.12-5.25h5.25c2.67-4.25,6.23-7.52,10.69-9.81,4.46-2.29,9.85-3.44,16.19-3.44,10,0,17.81,2.81,23.44,8.44s8.44,13.15,8.44,22.56v45.38h-17v-42.38c0-6.17-1.65-10.88-4.94-14.12-3.29-3.25-8.15-4.88-14.56-4.88s-11.29,1.62-14.62,4.88c-3.33,3.25-5,7.96-5,14.12v42.38h-17Z" fill="#252628"/><path d="M559.26,106.5c-7.92,0-14.81-1.6-20.69-4.81-5.88-3.21-10.4-7.77-13.56-13.69-3.17-5.92-4.75-12.83-4.75-20.75s1.56-14.77,4.69-20.56c3.12-5.79,7.56-10.27,13.31-13.44,5.75-3.17,12.54-4.75,20.38-4.75s13.96,1.48,19.38,4.44c5.42,2.96,9.6,7.17,12.56,12.62,2.96,5.46,4.44,11.94,4.44,19.44v6.25h-58.5c.67,6.83,2.96,12.11,6.88,15.81,3.92,3.71,9.17,5.56,15.75,5.56,4.83,0,8.79-.92,11.88-2.75,3.08-1.83,5.21-4.58,6.38-8.25h17.25c-1.83,7.83-5.86,13.94-12.06,18.31-6.21,4.38-13.98,6.56-23.31,6.56ZM537.01,59.38h41.75c-.67-5.5-2.75-9.73-6.25-12.69-3.5-2.96-8.12-4.44-13.88-4.44s-10.5,1.48-14.25,4.44c-3.75,2.96-6.21,7.19-7.38,12.69Z" fill="#252628"/><rect x="111.82" y="29.24" width="18" height="18" fill="#e5322e"/><rect x="424.47" y="29.22" width="18" height="18" fill="#f7b523"/><rect x="392" y="1.77" width="19" height="19" fill="#24b238"/><rect x="207.94" y="29.19" width="18" height="18" fill="#0076ce"/></g></svg>