<?xml version="1.0" encoding="UTF-8"?><svg id="a" xmlns="http://www.w3.org/2000/svg" viewBox="0 0 1024 1024"><rect width="1024" height="1024" fill="#fff"/><polygon points="727.7 286.25 383.91 629.99 261.44 507.52 261.44 645.66 383.91 768.17 762.56 389.52 762.56 286.25 727.7 286.25" fill="#e5322e"/><path d="M560.16,911.68h142.15c23.57-23.57,36.67-36.67,60.24-60.19v-142.16l-202.39,202.35Z" fill="#24b238"/><path d="M383.91,863.95l-122.47-122.47v110c23.53,23.53,36.67,36.62,60.2,60.19h142.74l298.17-298.17v-128.2l-378.64,378.65Z" fill="#0073cf"/><path d="M442.89,229.67c0-40.61,30.7-73.44,68.74-73.44s68.74,32.83,68.74,73.44v56.58h42.87v-62.71c0-61.22-49.65-111.22-111.26-111.22s-111.22,49.65-111.22,111.22v62.71h42.13v-56.58Z" fill="#24b238"/><polygon points="632.23 285.89 261.44 286.25 261.44 411.7 383.91 534.21 632.23 285.89" fill="#f7b523"/></svg>