<svg xmlns="http://www.w3.org/2000/svg" viewBox="0 0 100 100"><title>01-preline</title><rect x="10" y="10" width="80" height="80" style="fill:#fff"/><path d="M26.9,65.81Q22.64,59.9,22.64,50T26.9,34.19q4.26-5.91,12.84-5.91t12.84,5.91Q56.84,40.1,56.84,50T52.58,65.81q-4.26,5.91-12.84,5.91T26.9,65.81ZM32,38.66Q29.48,43,29.48,50T32,61.34a8.34,8.34,0,0,0,7.77,4.32,8.22,8.22,0,0,0,7.71-4.29Q49.88,57.08,49.88,50T47.45,38.63a8.22,8.22,0,0,0-7.71-4.29A8.34,8.34,0,0,0,32,38.66ZM62.12,29.3H77.36V71.24H70.64V35.6H62.12Z" style="fill:#1c1c1e"/><path d="M100,10H10V0H90a10,10,0,0,1,10,10Z" style="fill:#ea1f33"/><path d="M0,90V10A10,10,0,0,1,10,0h0V90Z" style="fill:#ffda00"/><path d="M90,100V10h10V90a10,10,0,0,1-10,10Z" style="fill:#1ab537"/><path d="M90,100H10A10,10,0,0,1,0,90H90Z" style="fill:#088ac4"/></svg>