<svg xmlns="http://www.w3.org/2000/svg" viewBox="0 0 315 100"><title>preline-logo</title><path d="M140.11,32.6q4.41,3.63,4.47,11.25T140.19,55q-4.44,3.58-13.68,3.65l-7.49.06V71h-7.26V29.16h14.4C132.52,29.11,137.17,30.18,140.11,32.6Zm-4.88,17.35q2.11-2.27,2.08-6.62t-2.75-6.13q-2.71-1.78-8.47-1.73l-7.07.06v16.8l8.22-.06Q133.12,52.21,135.23,49.95Zm33.87-4.59q-5.25-.12-7.86,3.24t-2.52,8.7V71H152V39.05h6.72v6.42a13.92,13.92,0,0,1,4.41-4.92,10.62,10.62,0,0,1,5.91-2l.06,6.78ZM205.52,58h-25a7.27,7.27,0,0,0,3.18,5.61,11.16,11.16,0,0,0,6.72,2.13q6,0,9.12-3.78l3.84,4.2q-5.16,5.34-13.44,5.34A16,16,0,0,1,178.49,67q-4.71-4.47-4.71-12t4.8-12a16.11,16.11,0,0,1,11.31-4.44A16.38,16.38,0,0,1,201,42.5q4.56,3.93,4.56,10.83Zm-25-5.28h18.3a7.69,7.69,0,0,0-2.52-6.18,9.15,9.15,0,0,0-6-2.16,11.06,11.06,0,0,0-4.85,1.05Q180.5,47.69,180.5,52.67ZM219.62,71H212.9V26.45h6.72Zm10-38.28a4.2,4.2,0,1,1,3,1.26A4.1,4.1,0,0,1,229.66,32.69ZM236.06,71h-6.72V39.05h6.72ZM252.5,53.69V71h-6.72V39.05h6.72v5.82a12.2,12.2,0,0,1,6.56-5.62,10.44,10.44,0,0,1,3.28-.66q5.94-.25,9.51,3.28,3.33,3.3,3.33,9.54V71h-6.72V53.45q0-8.82-7.32-8.82a8.8,8.8,0,0,0-6.06,2.31Q252.5,49.25,252.5,53.69ZM314.24,58h-25a7.26,7.26,0,0,0,3.18,5.61,11.16,11.16,0,0,0,6.72,2.13q6,0,9.12-3.78l3.84,4.2q-5.16,5.34-13.44,5.34A16,16,0,0,1,287.21,67q-4.71-4.47-4.71-12t4.8-12a16.11,16.11,0,0,1,11.31-4.44,16.38,16.38,0,0,1,11.07,3.93q4.56,3.93,4.56,10.83Zm-25-5.28h18.3A7.7,7.7,0,0,0,305,46.49a9.15,9.15,0,0,0-6-2.16,11.06,11.06,0,0,0-4.85,1Q289.22,47.69,289.22,52.67Z" style="fill:#1c1c1e"/><rect x="10" y="10" width="80" height="80" style="fill:#fff"/><path d="M100,10H10V0H90a10,10,0,0,1,10,10Z" style="fill:#ea1f33"/><path d="M0,90V10A10,10,0,0,1,10,0h0V90Z" style="fill:#ffda00"/><path d="M90,100V10h10V90a10,10,0,0,1-10,10Z" style="fill:#1ab537"/><path d="M90,100H10A10,10,0,0,1,0,90H90Z" style="fill:#088ac4"/><path d="M26.9,65.81Q22.64,59.9,22.64,50T26.9,34.19q4.26-5.91,12.84-5.91t12.84,5.91Q56.84,40.1,56.84,50T52.58,65.81q-4.26,5.91-12.84,5.91T26.9,65.81ZM32,38.66Q29.48,43,29.48,50T32,61.34a8.34,8.34,0,0,0,7.77,4.32,8.22,8.22,0,0,0,7.71-4.29Q49.88,57.08,49.88,50T47.45,38.63a8.22,8.22,0,0,0-7.71-4.29A8.34,8.34,0,0,0,32,38.66ZM62.12,29.3H77.36V71.24H70.64V35.6H62.12Z" style="fill:#1c1c1e"/></svg>