<?xml version="1.0" encoding="UTF-8"?><svg id="b" xmlns="http://www.w3.org/2000/svg" viewBox="0 0 483.2 135"><g id="c"><path d="M8.83,135V47.12l9.12-5.25h5.25c2.5-4.33,5.96-7.64,10.38-9.94,4.42-2.29,9.71-3.44,15.88-3.44,7.58,0,14.02,1.61,19.31,4.81,5.29,3.21,9.33,7.73,12.12,13.56,2.79,5.83,4.19,12.71,4.19,20.62s-1.36,14.81-4.06,20.69c-2.71,5.88-6.62,10.4-11.75,13.56-5.12,3.17-11.27,4.75-18.44,4.75-5.67,0-10.61-1.11-14.81-3.31-4.21-2.21-7.44-5.35-9.69-9.44h-.5v41.25H8.83ZM46.45,91.88c7,0,12.35-2.17,16.06-6.5,3.71-4.33,5.56-10.29,5.56-17.88s-1.86-13.54-5.56-17.88c-3.71-4.33-9.06-6.5-16.06-6.5-6.25,0-11.25,1.79-15,5.38-3.75,3.58-5.62,8.42-5.62,14.5v9c0,6.08,1.88,10.92,5.62,14.5,3.75,3.58,8.75,5.38,15,5.38Z" fill="#fff"/><path d="M104.95,105v-57.88l9.12-2.75h5.25c2-4.92,5.19-8.67,9.56-11.25,4.38-2.58,9.39-3.88,15.06-3.88h6.25v14.62h-7c-7.08,0-12.44,2.04-16.06,6.12-3.62,4.08-5.44,9.54-5.44,16.38v38.62h-16.75Z" fill="#fff"/><path d="M193.58,106.5c-7.92,0-14.81-1.6-20.69-4.81-5.88-3.21-10.4-7.77-13.56-13.69-3.17-5.92-4.75-12.83-4.75-20.75s1.56-14.77,4.69-20.56c3.12-5.79,7.56-10.27,13.31-13.44,5.75-3.17,12.54-4.75,20.38-4.75s13.96,1.48,19.38,4.44c5.42,2.96,9.6,7.17,12.56,12.62,2.96,5.46,4.44,11.94,4.44,19.44v6.25h-58.5c.67,6.83,2.96,12.11,6.88,15.81,3.92,3.71,9.17,5.56,15.75,5.56,4.83,0,8.79-.92,11.88-2.75,3.08-1.83,5.21-4.58,6.38-8.25h17.25c-1.83,7.83-5.86,13.94-12.06,18.31-6.21,4.38-13.98,6.56-23.31,6.56ZM171.33,59.38h41.75c-.67-5.5-2.75-9.73-6.25-12.69-3.5-2.96-8.12-4.44-13.88-4.44s-10.5,1.48-14.25,4.44c-3.75,2.96-6.21,7.19-7.38,12.69Z" fill="#fff"/><path d="M244.33,105V0h17v105h-17Z" fill="#fff"/><path d="M281.08,105V30h17v75h-17Z" fill="#fff"/><path d="M321.45,105v-57.88l9.12-5.25h5.25c2.67-4.25,6.23-7.52,10.69-9.81,4.46-2.29,9.85-3.44,16.19-3.44,10,0,17.81,2.81,23.44,8.44s8.44,13.15,8.44,22.56v45.38h-17v-42.38c0-6.17-1.65-10.88-4.94-14.12-3.29-3.25-8.15-4.88-14.56-4.88s-11.29,1.62-14.62,4.88c-3.33,3.25-5,7.96-5,14.12v42.38h-17Z" fill="#fff"/><path d="M447.45,106.5c-7.92,0-14.81-1.6-20.69-4.81-5.88-3.21-10.4-7.77-13.56-13.69-3.17-5.92-4.75-12.83-4.75-20.75s1.56-14.77,4.69-20.56c3.12-5.79,7.56-10.27,13.31-13.44,5.75-3.17,12.54-4.75,20.38-4.75s13.96,1.48,19.38,4.44c5.42,2.96,9.6,7.17,12.56,12.62,2.96,5.46,4.44,11.94,4.44,19.44v6.25h-58.5c.67,6.83,2.96,12.11,6.88,15.81,3.92,3.71,9.17,5.56,15.75,5.56,4.83,0,8.79-.92,11.88-2.75,3.08-1.83,5.21-4.58,6.38-8.25h17.25c-1.83,7.83-5.86,13.94-12.06,18.31-6.21,4.38-13.98,6.56-23.31,6.56ZM425.2,59.38h41.75c-.67-5.5-2.75-9.73-6.25-12.69-3.5-2.96-8.12-4.44-13.88-4.44s-10.5,1.48-14.25,4.44c-3.75,2.96-6.21,7.19-7.38,12.69Z" fill="#fff"/><rect y="29.24" width="18" height="18" fill="#e5322e"/><rect x="312.65" y="29.22" width="18" height="18" fill="#f7b523"/><rect x="280.19" y="1.77" width="19" height="19" fill="#24b238"/><rect x="96.13" y="29.19" width="18" height="18" fill="#0076ce"/></g></svg>